<svg xmlns="http://www.w3.org/2000/svg" viewBox="0 0 24 24" fill="none" stroke="currentColor" stroke-width="2" stroke-linecap="round" stroke-linejoin="round" class="lucide lucide-flask-conical"><path d="M10.2 2.2c-.1.1-.2.3-.2.5v3.8c0 .2.1.4.3.5l4.1 2.5c.1.1.3.1.4 0l4.1-2.5c.1-.1.3-.3.3-.5V2.7c0-.2-.1-.4-.3-.5l-4.1-2.5c-.1-.1-.3-.1-.4 0Z"/><path d="M8.2 9.8c0 1.6.9 3.1 2.3 3.8l3.5 1.9c.1.1.3.1.4 0l3.5-1.9c1.4-.7 2.3-2.2 2.3-3.8V7c0-.2-.1-.4-.3-.5l-4.1-2.5c-.1-.1-.3-.1-.4 0L8.5 6.5c-.1.1-.3.3-.3.5v2.8Z"/><path d="M12 22v-7"/><path d="M9 15c-1.7 0-3 1.3-3 3s1.3 3 3 3h6c1.7 0 3-1.3 3-3s-1.3-3-3-3H9Z"/></svg>
